# xmcd
# 
# Track frame offsets:
#     150
#     13925
#     34347
#     44957
#     57874
#     69755
#     81858
#     92460
#     102861
#     116064
#     126464
#     141994
#     154164
#     167850
#     178579
#     191643
#     203415
#     217889
#     230705
#     242540
# 
# Disc length: 3394
# 
# Revision: 0
# Processed by: cddbd v1.5.2PL0 Copyright (c) Steve Scherf et al.
# Submitted via: fre:ac v1.0.31
# 
DISCID=1e0d4014
DTITLE=60's - The 60's Love Album Disc 2
DYEAR=0
DGENRE=Rock/Pop
TTITLE0=It Ain't Me Babe
TTITLE1=Sunday Morning Comin' Down
TTITLE2=He'll Have To Go
TTITLE3=Devil Woman
TTITLE4=The End Of The World
TTITLE5=Stand By Your Man
TTITLE6=Flowers On The Wall
TTITLE7=Breaking Up Is Hard To Do
TTITLE8=A Gift Of Me
TTITLE9=Love Me Warm And Tender
TTITLE10=Cupid
TTITLE11=I'm Gonna Make You Mine
TTITLE12=Hang On Sloopy
TTITLE13=I’m A Good Woman
TTITLE14=Donna The Prima Donna
TTITLE15=Come Back And Shake Me
TTITLE16=Young Girl
TTITLE17=Everybodys Talkin'
TTITLE18=The In Crowd
TTITLE19=Moon River
EXTD=
EXTT0=
EXTT1=
EXTT2=
EXTT3=
EXTT4=
EXTT5=
EXTT6=
EXTT7=
EXTT8=
EXTT9=
EXTT10=
EXTT11=
EXTT12=
EXTT13=
EXTT14=
EXTT15=
EXTT16=
EXTT17=
EXTT18=
EXTT19=
PLAYORDER=
